<mxfile host="app.diagrams.net" modified="2023-08-25T17:15:20.368Z" agent="Mozilla/5.0 (Windows NT 10.0; Win64; x64) AppleWebKit/537.36 (KHTML, like Gecko) Chrome/116.0.0.0 Safari/537.36" etag="GqkIifux81X0igsf1IOT" version="21.6.9" type="device">
  <diagram name="Страница — 1" id="GDQghz7ct2lwa-FnABGg">
    <mxGraphModel dx="1434" dy="758" grid="1" gridSize="10" guides="1" tooltips="1" connect="1" arrows="1" fold="1" page="1" pageScale="1" pageWidth="827" pageHeight="1169" math="0" shadow="0">
      <root>
        <mxCell id="0" />
        <mxCell id="1" parent="0" />
        <mxCell id="MZ11wy90wZs3e7YOCHwJ-1" value="&lt;h1&gt;Favorite shoes&lt;/h1&gt;" style="text;html=1;strokeColor=#d79b00;fillColor=#ffcd28;spacing=5;spacingTop=-20;whiteSpace=wrap;overflow=hidden;rounded=0;fontSize=20;fontFamily=Architects Daughter;gradientColor=#ffa500;" vertex="1" parent="1">
          <mxGeometry x="270" y="20" width="320" height="70" as="geometry" />
        </mxCell>
        <mxCell id="MZ11wy90wZs3e7YOCHwJ-4" value="State dia" style="shape=umlFrame;whiteSpace=wrap;html=1;pointerEvents=0;sketch=1;hachureGap=4;jiggle=2;curveFitting=1;fontFamily=Architects Daughter;fontSource=https%3A%2F%2Ffonts.googleapis.com%2Fcss%3Ffamily%3DArchitects%2BDaughter;fontSize=20;fillColor=#ffcd28;strokeColor=#d79b00;width=100;height=40;gradientColor=#ffa500;" vertex="1" parent="1">
          <mxGeometry x="40" y="200" width="760" height="640" as="geometry" />
        </mxCell>
        <mxCell id="MZ11wy90wZs3e7YOCHwJ-12" value="" style="edgeStyle=orthogonalEdgeStyle;rounded=0;sketch=1;hachureGap=4;jiggle=2;curveFitting=1;orthogonalLoop=1;jettySize=auto;html=1;fontFamily=Architects Daughter;fontSource=https%3A%2F%2Ffonts.googleapis.com%2Fcss%3Ffamily%3DArchitects%2BDaughter;fontSize=16;" edge="1" parent="1" source="MZ11wy90wZs3e7YOCHwJ-5" target="MZ11wy90wZs3e7YOCHwJ-7">
          <mxGeometry relative="1" as="geometry" />
        </mxCell>
        <mxCell id="MZ11wy90wZs3e7YOCHwJ-5" value="" style="ellipse;html=1;shape=startState;fillColor=#000000;strokeColor=#ff0000;sketch=1;hachureGap=4;jiggle=2;curveFitting=1;fontFamily=Architects Daughter;fontSource=https%3A%2F%2Ffonts.googleapis.com%2Fcss%3Ffamily%3DArchitects%2BDaughter;fontSize=20;" vertex="1" parent="1">
          <mxGeometry x="384" y="160" width="30" height="30" as="geometry" />
        </mxCell>
        <mxCell id="MZ11wy90wZs3e7YOCHwJ-14" value="Один раз надел" style="rounded=0;sketch=1;hachureGap=4;jiggle=2;curveFitting=1;orthogonalLoop=1;jettySize=auto;html=1;fontFamily=Architects Daughter;fontSource=https%3A%2F%2Ffonts.googleapis.com%2Fcss%3Ffamily%3DArchitects%2BDaughter;fontSize=16;entryX=0;entryY=0;entryDx=0;entryDy=0;" edge="1" parent="1" source="MZ11wy90wZs3e7YOCHwJ-7" target="MZ11wy90wZs3e7YOCHwJ-13">
          <mxGeometry relative="1" as="geometry">
            <mxPoint x="549" y="265" as="targetPoint" />
          </mxGeometry>
        </mxCell>
        <mxCell id="MZ11wy90wZs3e7YOCHwJ-7" value="Абсолютно&lt;br style=&quot;font-size: 17px;&quot;&gt;новые шузы" style="ellipse;whiteSpace=wrap;html=1;sketch=1;hachureGap=4;jiggle=2;curveFitting=1;fontFamily=Architects Daughter;fontSource=https%3A%2F%2Ffonts.googleapis.com%2Fcss%3Ffamily%3DArchitects%2BDaughter;fontSize=17;" vertex="1" parent="1">
          <mxGeometry x="329" y="230" width="140" height="70" as="geometry" />
        </mxCell>
        <mxCell id="MZ11wy90wZs3e7YOCHwJ-16" value="Поносил месяц" style="rounded=0;sketch=1;hachureGap=4;jiggle=2;curveFitting=1;orthogonalLoop=1;jettySize=auto;html=1;fontFamily=Architects Daughter;fontSource=https%3A%2F%2Ffonts.googleapis.com%2Fcss%3Ffamily%3DArchitects%2BDaughter;fontSize=16;entryX=1;entryY=0;entryDx=0;entryDy=0;" edge="1" parent="1" source="MZ11wy90wZs3e7YOCHwJ-13" target="MZ11wy90wZs3e7YOCHwJ-15">
          <mxGeometry relative="1" as="geometry">
            <mxPoint x="450" y="415" as="targetPoint" />
          </mxGeometry>
        </mxCell>
        <mxCell id="MZ11wy90wZs3e7YOCHwJ-13" value="Почти&lt;br style=&quot;font-size: 17px;&quot;&gt;новые шузы" style="ellipse;whiteSpace=wrap;html=1;sketch=1;hachureGap=4;jiggle=2;curveFitting=1;fontFamily=Architects Daughter;fontSource=https%3A%2F%2Ffonts.googleapis.com%2Fcss%3Ffamily%3DArchitects%2BDaughter;fontSize=17;" vertex="1" parent="1">
          <mxGeometry x="540" y="330" width="140" height="70" as="geometry" />
        </mxCell>
        <mxCell id="MZ11wy90wZs3e7YOCHwJ-18" value="Поносил год" style="rounded=0;sketch=1;hachureGap=4;jiggle=2;curveFitting=1;orthogonalLoop=1;jettySize=auto;html=1;fontFamily=Architects Daughter;fontSource=https%3A%2F%2Ffonts.googleapis.com%2Fcss%3Ffamily%3DArchitects%2BDaughter;fontSize=16;entryX=0.014;entryY=0.4;entryDx=0;entryDy=0;entryPerimeter=0;" edge="1" parent="1" source="MZ11wy90wZs3e7YOCHwJ-15" target="MZ11wy90wZs3e7YOCHwJ-17">
          <mxGeometry relative="1" as="geometry">
            <mxPoint x="300" y="550" as="targetPoint" />
          </mxGeometry>
        </mxCell>
        <mxCell id="MZ11wy90wZs3e7YOCHwJ-15" value="Свежие шузы" style="ellipse;whiteSpace=wrap;html=1;sketch=1;hachureGap=4;jiggle=2;curveFitting=1;fontFamily=Architects Daughter;fontSource=https%3A%2F%2Ffonts.googleapis.com%2Fcss%3Ffamily%3DArchitects%2BDaughter;fontSize=17;" vertex="1" parent="1">
          <mxGeometry x="180" y="410" width="140" height="70" as="geometry" />
        </mxCell>
        <mxCell id="MZ11wy90wZs3e7YOCHwJ-20" value="Поносил еще год" style="rounded=0;sketch=1;hachureGap=4;jiggle=2;curveFitting=1;orthogonalLoop=1;jettySize=auto;html=1;fontFamily=Architects Daughter;fontSource=https%3A%2F%2Ffonts.googleapis.com%2Fcss%3Ffamily%3DArchitects%2BDaughter;fontSize=16;entryX=0.936;entryY=0.271;entryDx=0;entryDy=0;entryPerimeter=0;" edge="1" parent="1" source="MZ11wy90wZs3e7YOCHwJ-17" target="MZ11wy90wZs3e7YOCHwJ-19">
          <mxGeometry relative="1" as="geometry">
            <mxPoint x="550" y="670" as="targetPoint" />
          </mxGeometry>
        </mxCell>
        <mxCell id="MZ11wy90wZs3e7YOCHwJ-17" value="Тертые &lt;br&gt;шузы&amp;nbsp;&lt;br&gt;" style="ellipse;whiteSpace=wrap;html=1;sketch=1;hachureGap=4;jiggle=2;curveFitting=1;fontFamily=Architects Daughter;fontSource=https%3A%2F%2Ffonts.googleapis.com%2Fcss%3Ffamily%3DArchitects%2BDaughter;fontSize=17;" vertex="1" parent="1">
          <mxGeometry x="540" y="485" width="140" height="70" as="geometry" />
        </mxCell>
        <mxCell id="MZ11wy90wZs3e7YOCHwJ-24" value="Не смог расстаться" style="rounded=0;sketch=1;hachureGap=4;jiggle=2;curveFitting=1;orthogonalLoop=1;jettySize=auto;html=1;fontFamily=Architects Daughter;fontSource=https%3A%2F%2Ffonts.googleapis.com%2Fcss%3Ffamily%3DArchitects%2BDaughter;fontSize=16;entryX=0.5;entryY=0;entryDx=0;entryDy=0;" edge="1" parent="1" source="MZ11wy90wZs3e7YOCHwJ-19" target="MZ11wy90wZs3e7YOCHwJ-23">
          <mxGeometry relative="1" as="geometry">
            <mxPoint x="399" y="735" as="targetPoint" />
          </mxGeometry>
        </mxCell>
        <mxCell id="MZ11wy90wZs3e7YOCHwJ-25" value="Смог расстаться" style="rounded=0;sketch=1;hachureGap=4;jiggle=2;curveFitting=1;orthogonalLoop=1;jettySize=auto;html=1;fontFamily=Architects Daughter;fontSource=https%3A%2F%2Ffonts.googleapis.com%2Fcss%3Ffamily%3DArchitects%2BDaughter;fontSize=16;entryX=0.5;entryY=0;entryDx=0;entryDy=0;" edge="1" parent="1" source="MZ11wy90wZs3e7YOCHwJ-19" target="MZ11wy90wZs3e7YOCHwJ-22">
          <mxGeometry relative="1" as="geometry">
            <mxPoint x="399" y="735" as="targetPoint" />
          </mxGeometry>
        </mxCell>
        <mxCell id="MZ11wy90wZs3e7YOCHwJ-19" value="Уставшие&lt;br&gt;шузы&amp;nbsp;" style="ellipse;whiteSpace=wrap;html=1;sketch=1;hachureGap=4;jiggle=2;curveFitting=1;fontFamily=Architects Daughter;fontSource=https%3A%2F%2Ffonts.googleapis.com%2Fcss%3Ffamily%3DArchitects%2BDaughter;fontSize=17;" vertex="1" parent="1">
          <mxGeometry x="329" y="585" width="140" height="70" as="geometry" />
        </mxCell>
        <mxCell id="MZ11wy90wZs3e7YOCHwJ-29" value="" style="rounded=0;sketch=1;hachureGap=4;jiggle=2;curveFitting=1;orthogonalLoop=1;jettySize=auto;html=1;fontFamily=Architects Daughter;fontSource=https%3A%2F%2Ffonts.googleapis.com%2Fcss%3Ffamily%3DArchitects%2BDaughter;fontSize=16;" edge="1" parent="1" source="MZ11wy90wZs3e7YOCHwJ-22" target="MZ11wy90wZs3e7YOCHwJ-27">
          <mxGeometry relative="1" as="geometry" />
        </mxCell>
        <mxCell id="MZ11wy90wZs3e7YOCHwJ-22" value="Выкинул&lt;br&gt;шузы&amp;nbsp;" style="ellipse;whiteSpace=wrap;html=1;sketch=1;hachureGap=4;jiggle=2;curveFitting=1;fontFamily=Architects Daughter;fontSource=https%3A%2F%2Ffonts.googleapis.com%2Fcss%3Ffamily%3DArchitects%2BDaughter;fontSize=17;" vertex="1" parent="1">
          <mxGeometry x="510" y="740" width="140" height="70" as="geometry" />
        </mxCell>
        <mxCell id="MZ11wy90wZs3e7YOCHwJ-28" value="" style="rounded=0;sketch=1;hachureGap=4;jiggle=2;curveFitting=1;orthogonalLoop=1;jettySize=auto;html=1;fontFamily=Architects Daughter;fontSource=https%3A%2F%2Ffonts.googleapis.com%2Fcss%3Ffamily%3DArchitects%2BDaughter;fontSize=16;entryX=0;entryY=0;entryDx=0;entryDy=0;" edge="1" parent="1" source="MZ11wy90wZs3e7YOCHwJ-23" target="MZ11wy90wZs3e7YOCHwJ-27">
          <mxGeometry relative="1" as="geometry">
            <mxPoint x="250" y="870" as="targetPoint" />
          </mxGeometry>
        </mxCell>
        <mxCell id="MZ11wy90wZs3e7YOCHwJ-23" value="Отвез на вечное&amp;nbsp;&lt;br style=&quot;font-size: 14px;&quot;&gt;хранение в деревню" style="ellipse;whiteSpace=wrap;html=1;sketch=1;hachureGap=4;jiggle=2;curveFitting=1;fontFamily=Architects Daughter;fontSource=https%3A%2F%2Ffonts.googleapis.com%2Fcss%3Ffamily%3DArchitects%2BDaughter;fontSize=14;" vertex="1" parent="1">
          <mxGeometry x="180" y="740" width="140" height="70" as="geometry" />
        </mxCell>
        <mxCell id="MZ11wy90wZs3e7YOCHwJ-27" value="" style="ellipse;html=1;shape=endState;fillColor=#000000;strokeColor=#ff0000;sketch=1;hachureGap=4;jiggle=2;curveFitting=1;fontFamily=Architects Daughter;fontSource=https%3A%2F%2Ffonts.googleapis.com%2Fcss%3Ffamily%3DArchitects%2BDaughter;fontSize=20;" vertex="1" parent="1">
          <mxGeometry x="384" y="870" width="30" height="30" as="geometry" />
        </mxCell>
      </root>
    </mxGraphModel>
  </diagram>
</mxfile>
